<?xml version="1.0" standalone="no"?>
<!DOCTYPE svg PUBLIC "-//W3C//DTD SVG 20010904//EN"
 "http://www.w3.org/TR/2001/REC-SVG-20010904/DTD/svg10.dtd">
<svg version="1.0" xmlns="http://www.w3.org/2000/svg"
 width="500.000000pt" height="500.000000pt" viewBox="0 300 500.000000 300.000000"
 preserveAspectRatio="xMidYMid meet">

<g transform="translate(0.000000,500.000000) scale(0.100000,-0.100000)"
fill="#000000" stroke="none">
<path d="M0 2500 l0 -2500 2500 0 2500 0 0 2500 0 2500 -2500 0 -2500 0 0
-2500z m1117 422 c10 -6 13 -96 15 -371 l3 -362 294 361 c161 198 302 365 312
370 27 15 321 13 342 -2 15 -12 -15 -52 -279 -378 -163 -201 -307 -379 -321
-397 l-24 -32 320 -377 c177 -207 321 -383 321 -390 0 -11 -37 -14 -189 -14
l-190 0 -187 233 c-104 127 -209 258 -235 289 l-47 57 -214 -241 -213 -242 -3
740 c-2 686 -1 740 15 752 19 14 259 17 280 4z m2247 2 c14 -5 16 -43 16 -325
l0 -319 -155 0 -155 0 0 175 0 175 -77 0 c-164 -1 -304 -52 -390 -143 -92 -97
-126 -194 -127 -362 0 -264 109 -414 349 -481 45 -12 120 -18 308 -21 l248 -5
-3 -142 -3 -141 -245 1 c-273 1 -362 13 -515 73 -211 81 -367 252 -419 457
-40 154 -40 373 -1 527 67 263 269 440 575 502 124 25 550 46 594 29z m760 0
c14 -5 16 -27 16 -140 l0 -134 -292 2 -293 3 -3 125 c-2 109 0 126 15 137 12
10 84 13 279 13 144 0 269 -3 278 -6z m14 -891 c-4 -326 -5 -352 -25 -405 -42
-111 -108 -185 -213 -238 -93 -47 -171 -61 -323 -58 l-132 3 -3 139 c-2 105 1
141 10 148 7 4 69 8 138 8 148 0 181 12 217 80 23 42 23 50 23 357 l0 313 156
0 155 0 -3 -347z m-3084 -1049 c30 -11 16 -25 -18 -18 -67 12 -112 -70 -65
-117 17 -17 29 -20 61 -15 30 5 39 3 36 -6 -3 -7 -23 -14 -46 -16 -57 -4 -92
29 -92 88 0 68 60 108 124 84z m56 -34 l0 -40 45 0 45 0 0 41 c0 28 4 39 13
37 8 -3 12 -30 12 -88 0 -58 -4 -85 -12 -87 -9 -3 -13 8 -13 36 l0 41 -45 0
-45 0 0 -41 c0 -28 -4 -39 -12 -37 -13 5 -24 138 -14 165 11 27 26 12 26 -27z
m247 -45 c18 -44 33 -83 33 -87 0 -18 -21 -6 -30 18 -9 22 -15 25 -47 22 -28
-2 -41 -9 -48 -25 -11 -25 -25 -31 -25 -10 0 25 63 168 73 164 6 -2 25 -39 44
-82z m154 75 c20 -11 27 -64 10 -74 -5 -3 -2 -24 6 -47 7 -23 11 -44 9 -47 -9
-9 -35 19 -38 41 -2 17 -11 23 -40 25 -37 3 -38 3 -38 -32 0 -20 -4 -36 -10
-36 -6 0 -10 37 -10 90 l0 90 46 0 c25 0 54 -5 65 -10z m163 4 c31 -12 15 -24
-23 -18 -31 5 -43 2 -60 -15 -27 -27 -27 -75 0 -102 17 -17 29 -20 61 -15 30
5 39 3 36 -6 -3 -7 -24 -14 -50 -16 -41 -3 -48 0 -73 29 -22 27 -26 39 -21 68
9 61 73 97 130 75z m153 -24 c10 -20 10 -29 -2 -46 -7 -12 -10 -25 -6 -30 5
-5 11 -24 15 -42 8 -44 -15 -38 -26 6 -8 28 -13 32 -43 32 -31 0 -34 -3 -37
-32 -2 -17 -9 -33 -15 -36 -10 -3 -13 19 -13 88 l0 91 57 -3 c50 -3 59 -6 70
-28z m143 20 c0 -5 -20 -10 -45 -10 -43 0 -45 -1 -45 -30 0 -28 2 -30 40 -30
22 0 40 -4 40 -10 0 -5 -18 -10 -40 -10 -38 0 -40 -2 -40 -30 0 -29 2 -30 45
-30 25 0 45 -4 45 -10 0 -5 -25 -10 -55 -10 l-55 0 0 90 0 90 55 0 c30 0 55
-4 55 -10z m210 -5 c7 -9 10 -27 7 -45 -4 -16 -2 -32 3 -35 14 -9 12 -59 -2
-73 -7 -7 -36 -12 -65 -12 l-53 0 0 90 0 90 49 0 c31 0 53 -5 61 -15z m139
-62 c17 -43 31 -84 31 -90 0 -22 -16 -14 -28 12 -9 20 -19 25 -47 25 -29 0
-37 -5 -45 -25 -8 -21 -30 -36 -30 -20 0 6 60 157 66 167 12 19 24 3 53 -69z
m71 -19 c0 -68 -3 -84 -15 -84 -12 0 -15 16 -15 83 0 46 3 87 6 90 17 16 24
-11 24 -89z m48 13 l3 -77 39 0 c22 0 40 -4 40 -10 0 -5 -25 -10 -55 -10 l-55
0 0 91 c0 68 3 90 13 87 8 -3 13 -31 15 -81z m193 72 c11 -5 17 -14 14 -20 -4
-5 -14 -5 -27 2 -25 13 -68 3 -68 -16 0 -8 21 -25 48 -37 51 -25 65 -54 37
-82 -20 -20 -74 -21 -101 -2 -27 20 -14 28 23 14 36 -13 66 -5 61 18 -3 17
-12 24 -60 43 -21 8 -28 17 -28 39 0 15 5 33 12 40 15 15 63 16 89 1z m144 1
c4 -6 -12 -10 -39 -10 -44 0 -46 -1 -46 -30 0 -28 3 -30 35 -30 19 0 35 -4 35
-10 0 -5 -16 -10 -35 -10 -32 0 -35 -2 -35 -30 0 -28 2 -30 40 -30 22 0 40 -4
40 -10 0 -5 -25 -10 -55 -10 l-55 0 0 90 0 90 54 0 c30 0 58 -4 61 -10z m95
-37 l0 -47 50 49 c55 54 83 55 30 0 l-34 -35 32 -39 c32 -39 40 -61 24 -61 -5
0 -23 18 -41 40 -26 33 -35 39 -47 29 -8 -6 -14 -24 -14 -40 0 -19 -5 -29 -15
-29 -12 0 -15 16 -15 83 0 46 3 87 7 90 16 16 23 4 23 -40z m150 -43 c0 -53
-4 -90 -10 -90 -6 0 -10 37 -10 90 0 53 4 90 10 90 6 0 10 -37 10 -90z m96 23
l49 -68 3 68 c4 100 22 82 22 -23 0 -51 -4 -90 -10 -90 -5 0 -32 30 -60 66
l-50 67 0 -67 c0 -37 -4 -66 -10 -66 -6 0 -10 37 -10 90 0 50 4 90 8 90 5 0
30 -30 58 -67z m232 48 c3 -10 -3 -12 -26 -6 -31 6 -70 -7 -84 -29 -28 -41 12
-110 60 -104 35 4 46 48 13 48 -12 0 -21 5 -21 10 0 6 16 10 35 10 33 0 35 -2
35 -33 0 -43 -15 -57 -61 -57 -57 0 -94 36 -94 90 0 58 39 92 98 88 23 -2 42
-9 45 -17z m97 -49 l50 -67 3 68 c4 100 22 82 22 -23 0 -53 -4 -90 -10 -90 -6
0 -31 28 -58 61 l-47 62 -5 -57 c-7 -82 -24 -74 -28 13 -3 75 1 101 15 101 4
-1 31 -31 58 -68z m239 37 c54 -63 17 -148 -65 -149 -49 0 -84 37 -84 90 0 85
95 123 149 59z m105 -35 l50 -66 3 64 c2 35 7 62 13 61 14 -4 13 -165 0 -170
-6 -2 -33 27 -60 64 l-50 68 -3 -68 c-4 -100 -22 -82 -22 23 0 51 4 90 10 90
5 0 32 -30 59 -66z m-1739 -34 c0 -5 -16 -10 -35 -10 -19 0 -35 5 -35 10 0 6
16 10 35 10 19 0 35 -4 35 -10z"/>
<path fill="#eaeaea" d="M1295 910 l-16 -30 30 0 c29 0 30 1 20 30 -6 17 -13 30 -15 30 -2 0
-10 -13 -19 -30z"/>
<path fill="#eaeaea" d="M1420 934 c0 -34 1 -35 36 -32 71 6 68 68 -2 68 -32 0 -34 -2 -34
-36z"/>
<path fill="#eaeaea" d="M1730 934 c0 -34 1 -35 31 -32 63 6 61 68 -2 68 -27 0 -29 -3 -29
-36z"/>
<path fill="#eaeaea" d="M2092 943 c4 -33 33 -41 63 -19 16 12 17 16 6 30 -7 9 -27 16 -43 16
-26 0 -29 -3 -26 -27z"/>
<path fill="#eaeaea" d="M2090 860 c0 -27 3 -30 34 -30 38 0 60 19 50 44 -4 11 -18 16 -45 16
-37 0 -39 -2 -39 -30z"/>
<path fill="#eaeaea" d="M2262 915 c-16 -35 -16 -35 13 -35 28 0 32 17 12 44 -12 17 -14 16
-25 -9z"/>
<path fill="#eaeaea" d="M3580 950 c-39 -39 -12 -120 40 -120 29 0 60 36 60 70 0 34 -31 70
-60 70 -11 0 -29 -9 -40 -20z"/>
</g>
</svg>
