<?xml version="1.0" standalone="no"?>
<!DOCTYPE svg PUBLIC "-//W3C//DTD SVG 20010904//EN"
 "http://www.w3.org/TR/2001/REC-SVG-20010904/DTD/svg10.dtd">
<svg version="1.0" xmlns="http://www.w3.org/2000/svg"
 width="500.000000pt" height="200.000000pt" viewBox="0 0 500.000000 200.000000"
 preserveAspectRatio="xMidYMid meet">

<g transform="translate(0.000000,350.000000) scale(0.100000,-0.100000)"
fill="#fff" stroke="none">
<path d="M830 2368 l0 -743 23 25 c13 14 109 121 212 238 150 170 191 211 199
200 6 -8 112 -139 235 -292 l224 -276 186 2 c142 2 186 6 186 16 0 7 -142 179
-315 383 -173 204 -316 375 -318 379 -1 4 141 184 317 401 176 216 317 397
315 401 -3 4 -86 8 -184 8 l-178 0 -299 -367 -298 -367 -3 367 -2 367 -150 0
-150 0 0 -742z"/>
<path d="M2827 3094 c-110 -17 -268 -70 -342 -115 -164 -99 -271 -268 -305
-483 -19 -112 -8 -351 20 -446 72 -249 249 -413 523 -484 131 -34 279 -48 482
-44 l170 3 3 141 3 142 -253 5 c-191 3 -267 8 -311 21 -212 59 -325 202 -343
431 -17 210 65 395 212 481 80 47 153 66 277 71 l117 6 0 -177 0 -176 150 0
150 0 0 320 0 320 -232 -1 c-143 -1 -267 -6 -321 -15z"/>
<path d="M3557 3103 c-9 -8 -9 -225 -1 -247 5 -14 41 -16 295 -16 l290 0 -3
133 -3 132 -286 3 c-157 1 -288 -1 -292 -5z"/>
<path d="M3838 2258 c-3 -313 -3 -313 -28 -357 -40 -71 -70 -83 -229 -90
l-136 -6 0 -140 0 -140 125 -3 c265 -6 440 78 520 251 43 92 50 161 50 495 l0
302 -149 0 -150 0 -3 -312z"/>
<!-- <path d="M965 1248 c-32 -19 -44 -40 -45 -81 0 -65 62 -105 124 -81 31 12 15
21 -28 17 -37 -5 -46 -2 -60 18 -22 32 -20 75 5 100 17 17 29 20 60 15 38 -6
54 6 23 18 -24 9 -57 7 -79 -6z"/>
<path d="M1080 1170 c0 -58 4 -89 10 -85 6 3 10 22 10 41 0 34 0 34 45 34 45
0 45 0 45 -34 0 -19 5 -38 10 -41 6 -4 10 27 10 85 0 58 -4 89 -10 85 -5 -3
-10 -22 -10 -41 0 -34 0 -34 -45 -34 -45 0 -45 0 -45 34 0 19 -4 38 -10 41 -6
4 -10 -27 -10 -85z"/>
<path d="M1269 1194 c-16 -37 -32 -78 -35 -93 -5 -25 -5 -25 10 -7 9 11 16 23
16 28 0 4 18 8 40 8 33 0 42 -4 52 -25 12 -26 34 -36 25 -11 -25 64 -70 166
-73 166 -3 0 -18 -30 -35 -66z m57 -41 c-2 -3 -15 -3 -29 -1 -25 3 -25 4 -11
38 l15 35 15 -34 c8 -19 12 -36 10 -38z"/>
<path d="M1390 1170 c0 -53 4 -90 10 -90 6 0 10 16 10 35 0 34 1 35 40 35 36
0 40 -3 48 -32 4 -17 13 -33 20 -36 8 -2 8 8 -3 37 -11 31 -11 46 -2 70 17 45
-10 71 -75 71 l-48 0 0 -90z m101 54 c20 -24 -1 -48 -45 -52 -35 -3 -36 -2
-36 32 0 34 2 36 34 36 18 0 39 -7 47 -16z"/>
<path d="M1582 1250 c-28 -12 -52 -66 -45 -103 10 -50 74 -81 127 -61 31 12
16 22 -24 17 -54 -7 -80 15 -80 68 0 50 32 74 87 65 35 -6 37 -5 19 9 -22 17
-50 18 -84 5z"/>
<path d="M1697 1253 c-11 -10 -8 -161 3 -168 6 -4 10 8 10 30 l0 36 42 -3 c39
-3 43 -6 48 -32 3 -16 11 -31 18 -34 15 -5 7 44 -11 66 -7 9 -7 16 1 24 19 19
14 66 -7 78 -22 11 -94 14 -104 3z m98 -48 c0 -28 -3 -30 -42 -33 l-43 -3 0
36 0 36 43 -3 c39 -3 42 -5 42 -33z"/>
<path d="M1850 1170 l0 -90 55 0 c30 0 55 5 55 10 0 6 -20 10 -45 10 -43 0
-45 1 -45 30 0 28 3 30 34 30 19 0 38 5 41 10 4 6 -10 10 -34 10 -39 0 -41 2
-41 30 0 29 2 30 46 30 27 0 43 4 39 10 -3 6 -28 10 -56 10 l-49 0 0 -90z"/>
<path d="M2060 1170 l0 -90 49 0 c71 0 106 44 66 84 -9 9 -11 17 -5 21 17 11
11 54 -9 65 -11 5 -38 10 -60 10 l-41 0 0 -90z m96 55 c9 -23 -15 -45 -47 -45
-26 0 -29 4 -29 30 0 28 3 30 35 30 23 0 38 -6 41 -15z m10 -80 c10 -24 -15
-45 -52 -45 -31 0 -34 3 -34 30 0 28 2 30 40 30 27 0 43 -5 46 -15z"/>
<path d="M2252 1239 c-6 -13 -21 -53 -36 -88 -29 -73 -29 -71 -18 -71 5 0 14
11 20 25 9 20 19 25 50 25 33 0 41 -4 52 -27 7 -16 15 -23 17 -16 4 12 -51
151 -67 167 -6 6 -13 0 -18 -15z m36 -61 c11 -27 10 -28 -18 -28 -17 0 -30 2
-30 4 0 1 5 18 11 35 12 34 18 33 37 -11z"/>
<path d="M2360 1170 c0 -58 4 -89 10 -85 6 3 10 42 10 85 0 43 -4 82 -10 85
-6 4 -10 -27 -10 -85z"/>
<path d="M2407 1249 c-4 -9 -7 -49 -5 -90 l3 -74 53 -3 c33 -2 52 1 52 8 0 7
6 8 19 0 35 -18 79 -12 96 14 21 32 6 62 -34 71 -35 8 -55 29 -47 50 6 17 39
20 67 5 15 -8 19 -7 19 4 0 20 -46 31 -79 20 -20 -7 -26 -16 -26 -39 0 -24 7
-33 35 -47 53 -26 63 -37 49 -54 -14 -17 -60 -19 -76 -3 -8 8 -13 8 -17 0 -4
-6 -27 -11 -51 -11 l-44 0 -3 83 c-2 49 -6 76 -11 66z"/>
<path d="M2654 1247 c-3 -8 -4 -47 -2 -88 l3 -74 53 -3 c31 -2 52 1 52 7 0 6
-20 11 -45 11 -43 0 -45 1 -45 30 0 28 2 30 40 30 22 0 40 5 40 10 0 6 -18 10
-40 10 -38 0 -40 2 -40 30 0 29 2 30 45 30 25 0 45 5 45 10 0 16 -100 12 -106
-3z"/>
<path d="M2840 1170 c0 -58 4 -89 10 -85 6 3 10 20 10 36 0 37 27 50 47 23 8
-10 23 -30 33 -44 10 -14 22 -22 26 -18 4 4 -1 18 -10 30 -54 75 -52 66 -16
103 53 55 25 54 -30 0 l-50 -49 0 41 c0 23 -4 45 -10 48 -6 4 -10 -27 -10 -85z"/>
<path d="M2990 1171 c0 -54 4 -91 10 -91 6 0 10 35 10 84 0 47 -4 88 -10 91
-6 4 -10 -27 -10 -84z"/>
<path d="M3040 1169 c0 -103 17 -114 22 -16 l3 59 48 -66 c27 -36 53 -66 58
-66 12 0 12 167 -1 175 -6 4 -10 -20 -10 -66 l0 -72 -50 66 c-27 36 -54 68
-60 72 -6 4 -10 -26 -10 -86z"/>
<path d="M3237 1249 c-11 -6 -25 -26 -33 -45 -12 -29 -12 -39 0 -68 16 -39 42
-56 85 -56 38 0 63 25 59 59 -2 21 -9 27 -35 29 -19 2 -33 -1 -33 -7 0 -6 9
-11 20 -11 15 0 20 -7 20 -25 0 -22 -4 -25 -33 -25 -43 0 -67 26 -67 73 0 47
34 72 85 64 19 -3 35 -2 35 3 0 20 -72 27 -103 9z"/>
<path d="M3372 1168 c2 -82 2 -85 5 -25 2 37 7 67 11 67 4 -1 29 -30 55 -66
26 -35 52 -62 57 -59 13 8 13 162 0 170 -5 3 -10 -24 -12 -66 l-3 -71 -48 66
c-27 36 -53 68 -58 71 -5 4 -8 -31 -7 -87z"/>
<path d="M3567 1249 c-26 -15 -46 -68 -40 -102 12 -62 93 -87 138 -42 71 70
-13 193 -98 144z m85 -26 c23 -20 24 -80 1 -105 -38 -42 -103 -10 -103 50 0
63 58 95 102 55z"/>
<path d="M3717 1253 c-11 -10 -8 -161 3 -168 6 -4 10 21 10 66 l0 73 53 -72
c28 -39 55 -71 60 -72 4 0 6 42 5 93 l-2 92 -5 -75 -6 -74 -53 72 c-58 78 -56
75 -65 65z"/>
<path d="M1970 1160 c0 -5 16 -10 35 -10 19 0 35 5 35 10 0 6 -16 10 -35 10
-19 0 -35 -4 -35 -10z"/> -->
</g>
</svg>
