<svg width="219" height="219" viewBox="0 0 219 219" fill="none" xmlns="http://www.w3.org/2000/svg">
<path d="M110.497 2.13344L116.016 74.2473C116.232 77.0725 119.883 78.0508 121.483 75.7123L162.32 16.0192C163.017 14.9999 164.581 15.9025 164.047 17.0164L132.769 82.2283C131.544 84.7831 134.217 87.456 136.772 86.2306L201.984 54.9532C203.097 54.4191 204 55.9827 202.981 56.6802L143.288 97.5167C140.949 99.1165 141.928 102.768 144.753 102.984L216.867 108.503C218.098 108.597 218.098 110.403 216.867 110.497L144.753 116.016C141.928 116.232 140.949 119.883 143.288 121.483L202.981 162.32C204 163.017 203.097 164.581 201.984 164.047L136.772 132.769C134.217 131.544 131.544 134.217 132.769 136.772L164.047 201.984C164.581 203.097 163.017 204 162.32 202.981L121.483 143.288C119.883 140.949 116.232 141.928 116.016 144.753L110.497 216.867C110.403 218.098 108.597 218.098 108.503 216.867L102.984 144.753C102.768 141.928 99.1165 140.949 97.5167 143.288L56.6802 202.981C55.9828 204 54.419 203.097 54.9532 201.984L86.2306 136.772C87.456 134.217 84.783 131.544 82.2283 132.769L17.0163 164.047C15.9027 164.581 14.9997 163.017 16.0193 162.32L75.7123 121.483C78.0508 119.883 77.0725 116.232 74.2473 116.016L2.1334 110.497C0.90197 110.403 0.901691 108.597 2.13344 108.503L74.2473 102.984C77.0725 102.768 78.0508 99.1165 75.7123 97.5167L16.0192 56.6802C14.9999 55.9828 15.9025 54.419 17.0164 54.9532L82.2283 86.2306C84.7831 87.456 87.456 84.783 86.2306 82.2283L54.9532 17.0163C54.4191 15.9027 55.9827 14.9997 56.6802 16.0193L97.5167 75.7123C99.1165 78.0508 102.768 77.0725 102.984 74.2473L108.503 2.1334C108.597 0.90197 110.403 0.901691 110.497 2.13344Z" stroke="url(#paint0_linear)" stroke-width="2"/>
<defs>
<linearGradient id="paint0_linear" x1="217.225" y1="18.1911" x2="19.0617" y2="199.355" gradientUnits="userSpaceOnUse">
<stop stop-color="#648FFF"/>
<stop offset="0.328125" stop-color="#785EF0"/>
<stop offset="0.697917" stop-color="#DC267F"/>
<stop offset="1" stop-color="#FE6100"/>
</linearGradient>
</defs>
</svg>
